<?xml version="1.0" encoding="UTF-8" standalone="no"?>
<!DOCTYPE svg PUBLIC "-//W3C//DTD SVG 1.1//EN"
 "http://www.w3.org/Graphics/SVG/1.1/DTD/svg11.dtd">
<!-- Generated by graphviz version 2.42.4 (0)
 -->
<!-- Title: G Pages: 1 -->
<svg width="1089pt" height="364pt"
 viewBox="0.00 0.00 1088.56 363.56" xmlns="http://www.w3.org/2000/svg" xmlns:xlink="http://www.w3.org/1999/xlink">
<g id="graph0" class="graph" transform="scale(1 1) rotate(0) translate(17.28 346.28)">
<title>G</title>
<polygon fill="white" stroke="transparent" points="-17.28,17.28 -17.28,-346.28 1071.28,-346.28 1071.28,17.28 -17.28,17.28"/>
<text text-anchor="middle" x="527" y="-308.2" font-family="DejaVu Sans" font-size="21.00" fill="#193654">SCALING PATH | v0.1 desktop to multi&#45;device platform</text>
<g id="clust1" class="cluster">
<title>cluster_v1</title>
<path fill="#edf5ff" stroke="#bfd6ec" d="M31.5,-197C31.5,-197 821,-197 821,-197 827,-197 833,-203 833,-209 833,-209 833,-278 833,-278 833,-284 827,-290 821,-290 821,-290 31.5,-290 31.5,-290 25.5,-290 19.5,-284 19.5,-278 19.5,-278 19.5,-209 19.5,-209 19.5,-203 25.5,-197 31.5,-197"/>
<text text-anchor="middle" x="426.25" y="-274" font-family="DejaVu Sans" font-size="15.00" fill="#193654">PHASE 1 — Private Desktop MVP</text>
</g>
<g id="clust2" class="cluster">
<title>cluster_v2</title>
<path fill="#f1f9f4" stroke="#c5e4ce" d="M20,-8C20,-8 1034,-8 1034,-8 1040,-8 1046,-14 1046,-20 1046,-20 1046,-177 1046,-177 1046,-183 1040,-189 1034,-189 1034,-189 20,-189 20,-189 14,-189 8,-183 8,-177 8,-177 8,-20 8,-20 8,-14 14,-8 20,-8"/>
<text text-anchor="middle" x="527" y="-173" font-family="DejaVu Sans" font-size="15.00" fill="#193654">PHASE 2 — When public / multi&#45;device is required</text>
</g>
<!-- desk -->
<g id="node1" class="node">
<title>desk</title>
<path fill="#cfe7fe" stroke="#8b9fb2" d="M178.5,-257C178.5,-257 39.5,-257 39.5,-257 33.5,-257 27.5,-251 27.5,-245 27.5,-245 27.5,-217 27.5,-217 27.5,-211 33.5,-205 39.5,-205 39.5,-205 178.5,-205 178.5,-205 184.5,-205 190.5,-211 190.5,-217 190.5,-217 190.5,-245 190.5,-245 190.5,-251 184.5,-257 178.5,-257"/>
<text text-anchor="middle" x="109" y="-234.6" font-family="DejaVu Sans" font-size="13.00">Tkinter Desktop</text>
<text text-anchor="middle" x="109" y="-220.6" font-family="DejaVu Sans" font-size="13.00">UI + Ports/Adapters</text>
</g>
<!-- core -->
<g id="node2" class="node">
<title>core</title>
<path fill="#d6f5e5" stroke="#8b9fb2" d="M462.5,-257C462.5,-257 314.5,-257 314.5,-257 308.5,-257 302.5,-251 302.5,-245 302.5,-245 302.5,-217 302.5,-217 302.5,-211 308.5,-205 314.5,-205 314.5,-205 462.5,-205 462.5,-205 468.5,-205 474.5,-211 474.5,-217 474.5,-217 474.5,-245 474.5,-245 474.5,-251 468.5,-257 462.5,-257"/>
<text text-anchor="middle" x="388.5" y="-234.6" font-family="DejaVu Sans" font-size="13.00">Domain + Use Cases</text>
<text text-anchor="middle" x="388.5" y="-220.6" font-family="DejaVu Sans" font-size="13.00">Reusable core</text>
</g>
<!-- desk&#45;&gt;core -->
<g id="edge1" class="edge">
<title>desk&#45;&gt;core</title>
<path fill="none" stroke="#688399" stroke-width="1.6" d="M190.64,-231C223.08,-231 260.7,-231 294.31,-231"/>
<polygon fill="#688399" stroke="#688399" stroke-width="1.6" points="294.31,-233.8 302.31,-231 294.31,-228.2 294.31,-233.8"/>
</g>
<!-- db -->
<g id="node3" class="node">
<title>db</title>
<path fill="#fceacb" stroke="#8b9fb2" d="M813,-257C813,-257 691,-257 691,-257 685,-257 679,-251 679,-245 679,-245 679,-217 679,-217 679,-211 685,-205 691,-205 691,-205 813,-205 813,-205 819,-205 825,-211 825,-217 825,-217 825,-245 825,-245 825,-251 819,-257 813,-257"/>
<text text-anchor="middle" x="752" y="-234.6" font-family="DejaVu Sans" font-size="13.00">Private MongoDB</text>
<text text-anchor="middle" x="752" y="-220.6" font-family="DejaVu Sans" font-size="13.00">+ GridFS</text>
</g>
<!-- core&#45;&gt;db -->
<g id="edge2" class="edge">
<title>core&#45;&gt;db</title>
<path fill="none" stroke="#688399" stroke-width="1.6" d="M474.71,-231C534.02,-231 612.59,-231 670.78,-231"/>
<polygon fill="#688399" stroke="#688399" stroke-width="1.6" points="670.85,-233.8 678.85,-231 670.85,-228.2 670.85,-233.8"/>
</g>
<!-- svc -->
<g id="node6" class="node">
<title>svc</title>
<path fill="#d6f5e5" stroke="#8b9fb2" d="M803,-156C803,-156 701,-156 701,-156 695,-156 689,-150 689,-144 689,-144 689,-116 689,-116 689,-110 695,-104 701,-104 701,-104 803,-104 803,-104 809,-104 815,-110 815,-116 815,-116 815,-144 815,-144 815,-150 809,-156 803,-156"/>
<text text-anchor="middle" x="752" y="-133.6" font-family="DejaVu Sans" font-size="13.00">Same Domain</text>
<text text-anchor="middle" x="752" y="-119.6" font-family="DejaVu Sans" font-size="13.00">+ Use Cases</text>
</g>
<!-- core&#45;&gt;svc -->
<g id="edge7" class="edge">
<title>core&#45;&gt;svc</title>
<path fill="none" stroke="#2e8555" stroke-width="1.6" stroke-dasharray="5,2" d="M474.68,-207.28C493.52,-202.03 508,-198 508,-198 508,-198 609.23,-169.67 681.01,-149.58"/>
<polygon fill="#2e8555" stroke="#2e8555" stroke-width="1.6" points="681.79,-152.28 688.74,-147.42 680.28,-146.88 681.79,-152.28"/>
<text text-anchor="middle" x="593.5" y="-191.2" font-family="DejaVu Sans" font-size="11.00">reuse (not rewrite)</text>
</g>
<!-- apps -->
<g id="node4" class="node">
<title>apps</title>
<path fill="#d8eafa" stroke="#8b9fb2" d="M190,-156C190,-156 28,-156 28,-156 22,-156 16,-150 16,-144 16,-144 16,-116 16,-116 16,-110 22,-104 28,-104 28,-104 190,-104 190,-104 196,-104 202,-110 202,-116 202,-116 202,-144 202,-144 202,-150 196,-156 190,-156"/>
<text text-anchor="middle" x="109" y="-133.6" font-family="DejaVu Sans" font-size="13.00">Desktop / Web / Mobile</text>
<text text-anchor="middle" x="109" y="-119.6" font-family="DejaVu Sans" font-size="13.00">UI clients</text>
</g>
<!-- api -->
<g id="node5" class="node">
<title>api</title>
<path fill="#cfe8fb" stroke="#8b9fb2" d="M496,-156C496,-156 281,-156 281,-156 275,-156 269,-150 269,-144 269,-144 269,-116 269,-116 269,-110 275,-104 281,-104 281,-104 496,-104 496,-104 502,-104 508,-110 508,-116 508,-116 508,-144 508,-144 508,-150 502,-156 496,-156"/>
<text text-anchor="middle" x="388.5" y="-133.6" font-family="DejaVu Sans" font-size="13.00">HTTPS API Adapter</text>
<text text-anchor="middle" x="388.5" y="-119.6" font-family="DejaVu Sans" font-size="13.00">Authentication + Authorization</text>
</g>
<!-- apps&#45;&gt;api -->
<g id="edge3" class="edge">
<title>apps&#45;&gt;api</title>
<path fill="none" stroke="#688399" stroke-width="1.6" d="M202.02,-130C220.74,-130 240.74,-130 260.43,-130"/>
<polygon fill="#688399" stroke="#688399" stroke-width="1.6" points="260.55,-132.8 268.55,-130 260.55,-127.2 260.55,-132.8"/>
</g>
<!-- api&#45;&gt;svc -->
<g id="edge4" class="edge">
<title>api&#45;&gt;svc</title>
<path fill="none" stroke="#688399" stroke-width="1.6" d="M508.12,-130C565.25,-130 631.82,-130 680.8,-130"/>
<polygon fill="#688399" stroke="#688399" stroke-width="1.6" points="680.81,-132.8 688.81,-130 680.81,-127.2 680.81,-132.8"/>
</g>
<!-- storage -->
<g id="node7" class="node">
<title>storage</title>
<path fill="#fceacb" stroke="#8b9fb2" d="M1019.5,-68C1019.5,-68 910.5,-68 910.5,-68 904.5,-68 898.5,-62 898.5,-56 898.5,-56 898.5,-28 898.5,-28 898.5,-22 904.5,-16 910.5,-16 910.5,-16 1019.5,-16 1019.5,-16 1025.5,-16 1031.5,-22 1031.5,-28 1031.5,-28 1031.5,-56 1031.5,-56 1031.5,-62 1025.5,-68 1019.5,-68"/>
<text text-anchor="middle" x="965" y="-45.6" font-family="DejaVu Sans" font-size="13.00">MongoDB</text>
<text text-anchor="middle" x="965" y="-31.6" font-family="DejaVu Sans" font-size="13.00">Object Adapter</text>
</g>
<!-- svc&#45;&gt;storage -->
<g id="edge5" class="edge">
<title>svc&#45;&gt;storage</title>
<path fill="none" stroke="#688399" stroke-width="1.6" d="M815.17,-104.07C839.95,-93.74 868.59,-81.79 894.1,-71.15"/>
<polygon fill="#688399" stroke="#688399" stroke-width="1.6" points="895.24,-73.71 901.55,-68.05 893.09,-68.54 895.24,-73.71"/>
</g>
<!-- sched -->
<g id="node8" class="node">
<title>sched</title>
<path fill="#fceacb" stroke="#8b9fb2" d="M1026,-156C1026,-156 904,-156 904,-156 898,-156 892,-150 892,-144 892,-144 892,-116 892,-116 892,-110 898,-104 904,-104 904,-104 1026,-104 1026,-104 1032,-104 1038,-110 1038,-116 1038,-116 1038,-144 1038,-144 1038,-150 1032,-156 1026,-156"/>
<text text-anchor="middle" x="965" y="-133.6" font-family="DejaVu Sans" font-size="13.00">Server Scheduler</text>
<text text-anchor="middle" x="965" y="-119.6" font-family="DejaVu Sans" font-size="13.00">Outbox / Jobs</text>
</g>
<!-- svc&#45;&gt;sched -->
<g id="edge6" class="edge">
<title>svc&#45;&gt;sched</title>
<path fill="none" stroke="#688399" stroke-width="1.6" d="M815.17,-130C836.6,-130 860.93,-130 883.61,-130"/>
<polygon fill="#688399" stroke="#688399" stroke-width="1.6" points="883.88,-132.8 891.88,-130 883.88,-127.2 883.88,-132.8"/>
</g>
</g>
</svg>
